<svg width="512" height="512" viewBox="0 0 512 512" fill="none" xmlns="http://www.w3.org/2000/svg">
<path fill-rule="evenodd" clip-rule="evenodd" d="M256 512C397.385 512 512 397.385 512 256C512 114.615 397.385 0 256 0C114.615 0 0 114.615 0 256C0 397.385 114.615 512 256 512ZM256.74 440.971C358.488 440.971 440.971 358.488 440.971 256.74C440.971 154.992 358.488 72.5087 256.74 72.5087C154.992 72.5087 72.5087 154.992 72.5087 256.74C72.5087 358.488 154.992 440.971 256.74 440.971Z" fill="#047863"/>
<path fill-rule="evenodd" clip-rule="evenodd" d="M256.795 408.646C340.66 408.646 408.646 340.66 408.646 256.795C408.646 172.93 340.66 104.944 256.795 104.944C172.93 104.944 104.944 172.93 104.944 256.795C104.944 340.66 172.93 408.646 256.795 408.646ZM256.795 356.174C311.68 356.174 356.174 311.68 356.174 256.795C356.174 201.91 311.68 157.416 256.795 157.416C201.91 157.416 157.416 201.91 157.416 256.795C157.416 311.68 201.91 356.174 256.795 356.174Z" fill="#06A261"/>
</svg>
